<svg xmlns="http://www.w3.org/2000/svg" width="35.5" height="34.413" viewBox="0 0 35.5 34.413">
  <defs>
    <style>
      .cls-1 {
        fill: #f2f1f5;
      }
    </style>
  </defs>
  <path id="Icon_simple-readthedocs" data-name="Icon simple-readthedocs" class="cls-1" d="M4.138,34.412l1.275-.206c.4-.063.791-.122,1.189-.181.611-.089,1.224-.176,1.834-.261.461-.066.922-.122,1.385-.185l.106-.022c.48-.063.957-.129,1.435-.172l2.332-.257V0h-.081C12.4,0,11.2.021,10,.05,8.672.076,7.318.136,5.992.2,5.418.231,4.84.267,4.265.3H4.179V34.4ZM15.956.021V32.916c1.654-.143,3.3-.261,4.96-.353q6.111-.346,12.242-.217,3.25.073,6.481.275V2.155q-2.893-.493-5.816-.87C30.042.794,26.225.452,22.4.237Q19.189.062,15.96.023h0ZM36.631,21.238l-.088-.006-1.078-.087c-2.687-.209-5.388-.347-8.081-.417s-5.407-.043-8.112.023h-.085a.986.986,0,0,1-.259-.023,1.284,1.284,0,0,1-.513-.214.709.709,0,0,1-.3-.71.755.755,0,0,1,.1-.238.779.779,0,0,1,.2-.192,1.116,1.116,0,0,1,.275-.149,2.133,2.133,0,0,1,.346-.087h.173c.375,0,.751-.023,1.095-.023,2.68-.042,5.327-.042,8.008.043,2.764.086,5.5.237,8.237.473l.29.022c.085.023.171.023.259.043a1.328,1.328,0,0,1,.49.26.95.95,0,0,1,.2.235.477.477,0,0,1,.085.258.7.7,0,0,1-.315.645,1.675,1.675,0,0,1-.259.151,1.38,1.38,0,0,1-.319.086.378.378,0,0,1-.171.023h-.09l-.092-.115Zm.067-3.887a1.19,1.19,0,0,1-.173-.009l-1.066-.1c-2.68-.257-5.386-.43-8.064-.515-2.68-.108-5.388-.129-8.095-.086l-.088-.023c-.086-.022-.173-.022-.259-.042a1.177,1.177,0,0,1-.488-.238,1.09,1.09,0,0,1-.173-.212.66.66,0,0,1,.027-.753.861.861,0,0,1,.2-.215.664.664,0,0,1,.288-.149,1.021,1.021,0,0,1,.346-.086l.173-.023,1.124-.022c2.682-.023,5.329.022,7.977.129,2.764.108,5.5.3,8.239.559l.286.023.175.02a1.089,1.089,0,0,1,.519.238.7.7,0,0,1,.317.644.36.36,0,0,1-.086.237,2.017,2.017,0,0,1-.173.215.991.991,0,0,1-.261.172,1.361,1.361,0,0,1-.315.087l-.175.02h-.081l-.175.129Zm0-3.887a1.19,1.19,0,0,1-.173-.009l-1.066-.115c-2.68-.272-5.357-.479-8.064-.614-2.68-.132-5.388-.194-8.095-.185h-.088l-.173-.023a1.7,1.7,0,0,1-.315-.1.931.931,0,0,1-.547-.628.838.838,0,0,1,.144-.5,1.054,1.054,0,0,1,.232-.206,1.3,1.3,0,0,1,.547-.215,1.425,1.425,0,0,1,.259-.022h1.093c2.764.013,5.53.092,8.268.247,2.68.151,5.329.373,7.978.655l.288.03a.827.827,0,0,1,.173.027,1.323,1.323,0,0,1,.317.115.658.658,0,0,1,.259.176,2.49,2.49,0,0,1,.173.227.654.654,0,0,1-.056.687.818.818,0,0,1-.2.209,1.178,1.178,0,0,1-.519.215.576.576,0,0,1-.175.02l-.085.007H36.7Zm0-3.889a1.022,1.022,0,0,1-.173-.01l-1.066-.129c-2.68-.323-5.357-.561-8.064-.711-2.68-.171-5.388-.257-8.095-.3h-.088l-.2-.02a1.45,1.45,0,0,1-.317-.106,1.168,1.168,0,0,1-.269-.173,1.778,1.778,0,0,1-.181-.214,1.031,1.031,0,0,1-.085-.26.782.782,0,0,1,.348-.708,1.289,1.289,0,0,1,.536-.215,1.057,1.057,0,0,1,.259-.022c.363,0,.73.007,1.095.011q4.141.073,8.268.353c2.664.171,5.321.43,7.962.751l.259.023a.5.5,0,0,1,.173.02,1.526,1.526,0,0,1,.317.109.94.94,0,0,1,.24.171.733.733,0,0,1,.2.667.911.911,0,0,1-.117.238.865.865,0,0,1-.23.194,1.3,1.3,0,0,1-.521.214H36.69l.008.118ZM6.6,8.845a1.579,1.579,0,0,1-.521-.09.9.9,0,0,1-.632-.724A.687.687,0,0,1,5.5,7.794a.6.6,0,0,1,.173-.272,1.178,1.178,0,0,1,.315-.232,1.712,1.712,0,0,1,.463-.132l.922-.063c1.266-.083,2.507-.151,3.744-.206h.115a1.326,1.326,0,0,1,.521.1.853.853,0,0,1,.6.744.7.7,0,0,1-.056.231.626.626,0,0,1-.175.271.976.976,0,0,1-.317.237,1.589,1.589,0,0,1-.461.129c-.2.022-.4.022-.6.043-.261.022-.549.022-.838.044l-2.244.126-.547.044a2.07,2.07,0,0,1-.376.022L6.6,8.845ZM36.669,5.689l-.175-.014L35.43,5.532c-2.68-.336-5.388-.609-8.095-.809-2.68-.2-5.386-.323-8.095-.389h-.086l-.173-.026a1.473,1.473,0,0,1-.317-.1,1.371,1.371,0,0,1-.259-.173.665.665,0,0,1-.231-.726,1.286,1.286,0,0,1,.142-.258.959.959,0,0,1,.232-.215A1.379,1.379,0,0,1,19.1,2.62a1.049,1.049,0,0,1,.259-.022l1.122.022c2.68.087,5.329.215,7.979.432,2.764.212,5.5.515,8.237.86l.288.02a.374.374,0,0,1,.173.023,1.324,1.324,0,0,1,.317.106.849.849,0,0,1,.459.6.4.4,0,0,1-.029.26.386.386,0,0,1-.113.235,1.632,1.632,0,0,1-.2.194,1.138,1.138,0,0,1-.549.194l-.165.02h-.088l-.115.123Zm-30.1-1.1a1.459,1.459,0,0,1-.48-.08,1.194,1.194,0,0,1-.359-.2.858.858,0,0,1-.213-.26.623.623,0,0,1-.075-.224.789.789,0,0,1,.49-.783,1.407,1.407,0,0,1,.5-.142c.3-.02.6-.02.909-.042,1.249-.065,2.5-.108,3.744-.151h.092a1.8,1.8,0,0,1,.492.108.887.887,0,0,1,.576.751.638.638,0,0,1-.058.238,1.18,1.18,0,0,1-.2.28.877.877,0,0,1-.35.215,1.224,1.224,0,0,1-.49.108c-.2.02-.4.02-.634.02l-.862.044c-.778.042-1.527.065-2.278.106L6.791,4.6a2.34,2.34,0,0,1-.373.022Z" transform="translate(-4.139 0.002)"/>
</svg>
